<svg xmlns="http://www.w3.org/2000/svg" width="520" height="360" viewBox="0 0 520 360" fill="none">
  <!-- 专题封面：京（生成：tools/gen-topic-covers.js） -->
  <defs>
    <linearGradient id="sky" x1="0" y1="0" x2="0" y2="1">
      <stop offset="0" stop-color="#F4EFE6"/>
      <stop offset="1" stop-color="#E0D6C4"/>
    </linearGradient>
  </defs>
  <rect width="520" height="360" fill="url(#sky)"/>
  <!-- 远山 -->
  <path d="M-20 132 Q50 120.3 120 143.7 Q190 106.3 260 155.4 Q330 120.3 400 167.10000000000002 Q470 106.3 540 178.8 L540 300 L-20 300 Z" fill="#B4543A" opacity=".85"/>
  <path d="M-20 132 Q50 120.3 120 143.7 Q190 106.3 260 155.4 Q330 120.3 400 167.10000000000002 Q470 106.3 540 178.8" stroke="#B4543A" stroke-width="1.6" fill="none" opacity=".5"/>
  <!-- 主题元素 -->
  <path d="M300 128 L318 128 L318 150 L306 150 L306 164 L318 164 L318 184 L300 184 Z" fill="#B4543A"/>
<path d="M300 118 L318 118 L318 128 L300 128 Z" fill="#B4543A"/>
<circle cx="309" cy="156" r="5" fill="#F2EDE0"/>
<rect x="240" y="176" width="120" height="16" fill="#B4543A" opacity=".85"/>
<rect x="248" y="184" width="104" height="8" fill="#8A3D2B" opacity=".7"/>
  <!-- 中景 -->
  <path d="M-20 262 Q120 222 270 262 T540 254 L540 318 L-20 318 Z" fill="#B4543A" opacity=".9"/>
  <!-- 近景 -->
  <path d="M-20 318 Q160 278 270 318 T540 310 L540 374 L-20 374 Z" fill="#20201D" opacity=".9"/>
  <!-- 印章 -->
  <g transform="translate(96 214)"><rect width="64" height="64" rx="8" fill="#C86D4B" opacity=".92"/>
<text x="32" y="47" font-size="40" text-anchor="middle" fill="#FFF7EC" font-family="'Kaiti SC','KaiTi','STKaiti',serif" font-weight="bold">京</text></g>
</svg>
